<svg id="Layer_2" xmlns="http://www.w3.org/2000/svg" viewBox="-379 628.8 740 245.2"><style>.st0{fill:#FFFFFF;}</style><path class="st0" d="M-311 737.4c28.8 0 50.3 15 64.5 45.1 2.3 8.5 3.5 15.5 3.5 21.1v57.5c0 7-4.7 11.3-14.1 12.9-9-2-13.5-6.4-13.5-13.5-12.5 9-26 13.5-40.4 13.5-26.9 0-47.6-13.3-62.1-39.8-3.9-8.9-5.9-17.5-5.9-25.8v-5.3c0-23.9 12.3-43.3 36.9-58 10.1-5.1 20.5-7.7 31.1-7.7zm-40.4 68v.6c0 19 10.4 32.1 31.1 39.3l6.4.6h6.4c14.1 0 25.6-8.6 34.6-25.8 1.6-5.5 2.3-10.5 2.3-15.2 0-17.3-9.6-30-28.7-38.1l-8.2-1.2h-6.4c-13.6 0-24.7 7.4-33.4 22.3-2.7 5.3-4.1 11.2-4.1 17.5zM-214.9 737.4c8.3 0 13 5.1 14.1 15.2v52.7c0 19.3 10.4 32.6 31.1 39.8l6.4.6h6.4c8.5 0 17.1-4.1 25.8-12.3 7.4-8 11.1-17.4 11.1-28.1v-54.5c0-7.3 4.7-11.8 14.1-13.5 9 1.8 13.5 6.1 13.5 12.9v57.4c0 21.1-9.8 39.1-29.3 53.9-12.1 8.2-25 12.3-38.7 12.3-26.8 0-47.5-13.3-62.1-39.8-3.9-9.5-5.9-17.9-5.9-25.2v-59.2c0-6.4 4.5-10.5 13.5-12.2zM43.5 683.5h2.9c6.9 0 11 4.9 12.3 14.6v106.6c0 27.9-13.3 48.8-39.8 62.7-9.2 4.3-18.8 6.4-28.7 6.4-27.1 0-48-13.9-62.7-41.6-3.5-9.8-5.3-18.8-5.3-27 0-27 13.9-47.9 41.6-62.7 9.8-3.5 18.8-5.3 27-5.3 14.1 0 27.5 4.5 40.4 13.5v-55.1c1.9-8 6-12.1 12.3-12.1zm-93.1 119.6v5.3c0 15.5 9 27.4 27 35.7 4.2 1.2 7.7 1.8 10.5 1.8h5.3c14.2 0 25.5-7.6 34-22.9 2.1-3.4 3.4-9.3 4.1-17.6 0-14.9-7.4-26.9-22.3-35.7-5.6-2.7-10.8-4.1-15.8-4.1h-5.3c-15.5 0-27.4 9-35.7 27-1.3 4.1-1.8 7.6-1.8 10.5z"/><g><path class="st0" d="M44.1 628.8h1.8c6.6 0 10.9 4.5 12.9 13.5 0 8.2-4.9 12.9-14.6 14.1-8.6-1.9-12.9-6-12.9-12.3v-3c-.1-6.4 4.2-10.5 12.8-12.3zm.6 53.9c8.3 0 13 5.1 14.1 15.2V804c0 7.1-3.3 12-10 14.6l-5.3.6c-8.2-2.2-12.3-6.3-12.3-12.3V695c0-6.6 4.5-10.7 13.5-12.3zM142 682.7c26.5 0 47 13.1 61.5 39.3 4.3 9.3 6.4 18.5 6.4 27.5v55.1c-1.2 9.8-5.9 14.6-14.1 14.6-9-2-13.5-6.2-13.5-12.9v-51.6c0-20.1-8.4-33.8-25.2-41-4-2-8.3-2.9-12.9-2.9h-5.3c-14.8 0-26.6 8.6-35.2 25.8-1.6 4.8-2.3 8.9-2.3 12.3v53.9c0 8.1-3.3 13.4-10 15.8l-4.7.6c-7.3 0-11.8-4.9-13.5-14.6V756c0-34.5 15.8-57.7 47.5-69.7 7.3-2.5 14.3-3.6 21.3-3.6zM293.1 682.7c26.5 0 47 13.1 61.5 39.3 4.3 9.3 6.4 18.5 6.4 27.5v55.1c-1.2 9.8-5.9 14.6-14.1 14.6-9-2-13.5-6.2-13.5-12.9v-51.6c0-20.1-8.4-33.8-25.2-41-4-2-8.3-2.9-12.9-2.9H290c-14.8 0-26.6 8.6-35.2 25.8-1.6 4.8-2.3 8.9-2.3 12.3v53.9c0 8.1-3.3 13.4-10 15.8l-4.7.6c-7.3 0-11.8-4.9-13.5-14.6V756c0-34.5 15.8-57.7 47.5-69.7 7.4-2.5 14.4-3.6 21.3-3.6z"/></g></svg>