<svg id="Capa_1" xmlns="http://www.w3.org/2000/svg" width="216" height="146" viewBox="0 0 216 146" fill="#fff"><path d="M162.18 41.592c-5.595-9.586-13.185-17.176-22.77-22.77-9.59-5.596-20.056-8.393-31.41-8.393-11.35 0-21.82 2.796-31.407 8.39-9.587 5.595-17.177 13.185-22.772 22.772C48.226 51.18 45.43 61.65 45.43 73c0 11.352 2.798 21.82 8.392 31.408 5.595 9.585 13.185 17.176 22.772 22.77 9.587 5.596 20.056 8.393 31.408 8.393s21.822-2.796 31.408-8.39c9.586-5.595 17.176-13.186 22.77-22.772C167.774 94.82 170.57 84.35 170.57 73c0-11.352-2.797-21.822-8.39-31.408zm-15.806 53.65c-3.965 6.79-9.342 12.166-16.132 16.132-6.79 3.965-14.203 5.946-22.242 5.946-8.038 0-15.452-1.98-22.242-5.946-6.79-3.966-12.166-9.343-16.13-16.132-3.967-6.79-5.95-14.203-5.95-22.242s1.984-15.453 5.95-22.242c3.963-6.79 9.34-12.167 16.13-16.132S99.96 28.68 108 28.68s15.453 1.98 22.242 5.946c6.79 3.965 12.167 9.343 16.132 16.132S152.32 64.96 152.32 73s-1.98 15.453-5.946 22.242z"/></svg>