<svg id="Capa_1" xmlns="http://www.w3.org/2000/svg" width="216" height="146" viewBox="0 0 216 146" fill="#fff"><path d="M130.16 73l23.953-23.953c1.52-1.52 2.28-3.367 2.28-5.54s-.76-4.02-2.28-5.54l-11.08-11.08c-1.52-1.522-3.367-2.282-5.54-2.282s-4.02.76-5.54 2.28L108 50.84 84.047 26.885c-1.52-1.52-3.367-2.28-5.54-2.28-2.172 0-4.02.76-5.54 2.28l-11.08 11.08c-1.52 1.52-2.282 3.368-2.282 5.54 0 2.174.76 4.02 2.28 5.54L85.84 73 61.885 96.953c-1.52 1.52-2.28 3.367-2.28 5.54s.76 4.02 2.28 5.54l11.08 11.08c1.522 1.52 3.37 2.28 5.54 2.28 2.174 0 4.02-.76 5.54-2.28L108 95.16l23.954 23.953c1.52 1.52 3.366 2.28 5.54 2.28 2.173 0 4.02-.76 5.54-2.28l11.08-11.08c1.52-1.52 2.28-3.367 2.28-5.54s-.76-4.02-2.28-5.54L130.16 73z"/></svg>